<svg xmlns="http://www.w3.org/2000/svg" viewBox="138.01 224.81 771.67 614.36">
    <defs>
      
      
      
      
      
      
      
      <clipPath id="shape">
        <path fill="currentColor" d="M894.5,676.5Q853,853,676.5,838Q500,823,328.5,833Q157,843,141,671.5Q125,500,194.5,382Q264,264,382,255Q500,246,646,227Q792,208,864,354Q936,500,894.5,676.5Z"/>
      </clipPath>
    </defs>
  
    

    <g clip-path="url(#shape)">
      <path fill="#22502A" d="M894.5,676.5Q853,853,676.5,838Q500,823,328.5,833Q157,843,141,671.5Q125,500,194.5,382Q264,264,382,255Q500,246,646,227Q792,208,864,354Q936,500,894.5,676.5Z"/>
    </g>

    
  
  </svg>