<svg xmlns="http://www.w3.org/2000/svg"  viewBox="0 0 64 64" width="64px" height="64px"><path fill="#ace3ff" d="M32 4A28 28 0 1 0 32 60A28 28 0 1 0 32 4Z"/><path fill="#85cbf8" d="M32,4v56c15.464,0,28-12.536,28-28S47.464,4,32,4z"/><path fill="#e3f2ff" d="M17,32c0-11.05,3.88-20.94,10-27.54C11.79,7.252,1.723,21.845,4.515,37.055 C6.614,48.492,15.563,57.441,27,59.54C20.88,52.94,17,43.05,17,32z"/><path fill="#8d6c9f" d="M9.371 40.813c-.415 0-.802-.26-.945-.673-.181-.521.096-1.091.618-1.272l1.89-.655c.523-.182 1.091.096 1.272.618.181.521-.096 1.091-.618 1.272l-1.89.655C9.59 40.795 9.479 40.813 9.371 40.813zM11.235 44.904c-.346 0-.683-.18-.868-.501-.275-.479-.111-1.09.368-1.365l1.734-.998c.48-.275 1.089-.111 1.365.368.275.479.111 1.09-.368 1.365l-1.734.998C11.576 44.861 11.404 44.904 11.235 44.904zM13.831 48.571c-.282 0-.562-.119-.76-.35-.359-.419-.31-1.051.109-1.41l1.519-1.301c.419-.359 1.05-.309 1.41.109.359.419.31 1.051-.109 1.41l-1.519 1.301C14.292 48.492 14.061 48.571 13.831 48.571z"/><path fill="#7bbeeb" d="M47,32c0,11.05-3.88,20.94-10,27.54c15.21-2.792,25.277-17.385,22.485-32.595 C57.386,15.508,48.437,6.559,37,4.46C43.1,11.06,47,20.95,47,32z"/><path fill="#72caaf" d="M46.75,8.438L45,12l2,2l-3,4l-1,1l-1-2h-4l-5,5l4,4l-3,1l-5,4l-3,1l1,2h2l2-2l4-1l3,3l1-2h2l1,4v1 l-4,1l-6-2l-7,3l-2,5l1,4l4,2l3-1l4,2l1,6l2,2l6-2l8-13l2-5l-2-2l1-1l4-1l2.625,2.125c0,0,2.375-6.875-1.625-15.5 S46.75,8.438,46.75,8.438z"/><g><path fill="#72caaf" d="M22,8v2l2-1l1,2l-2,5l-3.25,0.188L15,18v-2l-4,1l-1,8H7l-2.625,2.75c0,0,0.5-7,6.062-13.375 C16,8,20,7,20,7L22,8z"/></g><g><path fill="#8d6c9f" d="M15.216,19.103c-0.183,0-0.365-0.05-0.526-0.149c-0.294-0.182-0.474-0.504-0.474-0.851v-2.526 c0-0.107,0.017-0.214,0.051-0.316l2.525-7.577C16.929,7.275,17.311,7,17.741,7h3.789c0.552,0,1,0.448,1,1v0.908l1.078-0.54 c0.237-0.118,0.512-0.138,0.763-0.054c0.252,0.084,0.46,0.264,0.579,0.501l1.263,2.526c0.16,0.321,0.137,0.704-0.062,1.002 l-2.526,3.789c-0.186,0.278-0.498,0.445-0.832,0.445h-2.29l-4.84,2.42C15.522,19.068,15.369,19.103,15.216,19.103z M16.216,15.739 v0.746l3.604-1.802c0.139-0.069,0.292-0.105,0.447-0.105h1.991l1.907-2.86l-0.557-1.112l-1.631,0.816 c-0.31,0.154-0.678,0.138-0.973-0.044c-0.294-0.182-0.474-0.504-0.474-0.851V9h-2.068L16.216,15.739z"/><path fill="#8d6c9f" d="M5 28c-.259 0-.519-.101-.715-.3-.386-.395-.379-1.028.015-1.415l2.638-2.583c.305-.298.765-.371 1.147-.18l1.285.643 1.067-7.467c.053-.375.314-.688.673-.807l3.789-1.263c.525-.176 1.091.109 1.265.632.175.524-.108 1.09-.632 1.265l-3.203 1.068-1.175 8.229c-.045.318-.241.595-.526.744-.284.149-.624.152-.911.009l-1.888-.944L5.7 27.715C5.505 27.905 5.252 28 5 28zM37.948 27.943c-.256 0-.512-.098-.707-.293l-5.052-5.052c-.188-.188-.293-.442-.293-.707s.105-.52.293-.707l5.052-5.051c.188-.188.442-.293.707-.293h3.789c.379 0 .725.214.895.553l.368.737.369-.737c.048-.096.111-.184.188-.26l2.016-2.016-.941-1.881c-.129-.258-.14-.56-.031-.827l1.263-3.083c.209-.511.791-.755 1.305-.546.511.209.755.793.546 1.305l-1.091 2.662 1.06 2.12c.192.385.117.85-.188 1.154l-2.411 2.411-1.19 2.381c-.169.339-.516.553-.895.553l0 0c-.379 0-.725-.214-.895-.553l-.986-1.973h-2.756l-4.052 4.051 4.345 4.345c.391.391.391 1.023 0 1.414C38.459 27.846 38.204 27.943 37.948 27.943zM37.948 59.516c-.256 0-.512-.098-.707-.293l-2.526-2.526c-.188-.188-.293-.442-.293-.707v-4.516l-2.937-1.958-3.324 1.108c-.206.068-.427.068-.632 0l-3.789-1.263c-.325-.108-.571-.375-.654-.706l-1.263-5.052c-.058-.232-.031-.477.076-.69l2.526-5.051c.11-.219.296-.39.523-.481l6.314-2.526c.239-.095.504-.095.743 0l6.055 2.422 7.301-1.217c.431-.072.863.146 1.059.539l3.341 6.683 1.631-.816c.397-.199.878-.111 1.181.215.302.326.353.813.124 1.194l-3.789 6.314-4.146 7.239c-.274.479-.885.646-1.365.371-.479-.274-.645-.885-.371-1.365l4.156-7.257 2.132-3.554c0 0-.001 0-.002 0-.106 0-.213-.017-.316-.051-.251-.084-.459-.264-.578-.501l-3.458-6.917-6.849 1.142c-.183.031-.366.01-.536-.058l-5.943-2.377-5.59 2.236-2.19 4.38 1.04 4.161 2.952.983 3.472-1.157c.293-.097.615-.055.871.117l3.789 2.526c.278.186.445.498.445.832v4.637l2.233 2.233c.391.391.391 1.023 0 1.414C38.459 59.418 38.204 59.516 37.948 59.516z"/><path fill="#8d6c9f" d="M37.948,35.521c-0.333,0-0.646-0.166-0.832-0.445l-2.102-3.153l-2.84,0.947l-2.359,2.358 c-0.188,0.188-0.442,0.293-0.707,0.293h-2.526c-0.552,0-1-0.448-1-1v-2.525c0-0.552,0.448-1,1-1h2.112l4.759-4.759 c0.188-0.188,0.442-0.293,0.707-0.293h3.253l1.774-2.661l-0.684-0.684c-0.391-0.391-0.391-1.023,0-1.414s1.023-0.391,1.414,0 l1.263,1.263c0.337,0.337,0.39,0.865,0.125,1.262l-2.526,3.789c-0.186,0.278-0.498,0.445-0.832,0.445h-3.375l-3.026,3.026 l3.559-1.187c0.427-0.143,0.898,0.019,1.148,0.394l1.57,2.355l0.492-0.984c0.119-0.237,0.327-0.417,0.578-0.501l3.396-1.132 l1.078-2.155c0.247-0.493,0.846-0.695,1.342-0.447l2.526,1.263c0.494,0.247,0.694,0.848,0.447,1.342 c-0.248,0.494-0.846,0.694-1.342,0.447l-1.631-0.816l-0.816,1.631c-0.119,0.237-0.327,0.417-0.578,0.501l-3.396,1.132 l-1.077,2.155c-0.16,0.319-0.477,0.529-0.833,0.551C37.989,35.52,37.968,35.521,37.948,35.521z M27.582,33.521h1.112l0.532-0.532 c-0.039,0.004-0.079,0.007-0.118,0.007h-1.526V33.521z"/><path fill="#8d6c9f" d="M45.525 38.046c-.552 0-1-.448-1-1v-.263h-2.789c-.431 0-.812-.275-.949-.684l-1.263-3.789c-.167-.502.086-1.048.577-1.245l6.314-2.526c.516-.203 1.095.045 1.3.557.205.513-.044 1.095-.557 1.3l-5.439 2.175.737 2.21h3.068c.552 0 1 .448 1 1v1.263C46.525 37.599 46.077 38.046 45.525 38.046zM51.838 44.361c-.15 0-.303-.034-.446-.105-.494-.247-.694-.848-.447-1.342l2.079-4.157-1.631-.816c-.339-.169-.553-.516-.553-.895v-1.263c0-.459.312-.859.757-.97l5.052-1.263c.354-.089.729.023.977.291l2.109 2.28c.375.406.351 1.038-.055 1.413-.405.376-1.039.351-1.413-.055l-1.707-1.845-3.539.885 1.792.896c.494.247.694.848.447 1.342l-2.526 5.051C52.559 44.159 52.206 44.361 51.838 44.361zM29.107 26.943h-2.526c-.51 0-.971-.308-1.167-.779-.196-.472-.087-1.015.274-1.377l1.263-1.263c.027-.027.053-.052.081-.075l-.386-1.158c-.221-.662.136-1.377.798-1.598.664-.224 1.378.138 1.598.798l1.263 3.789c.129.385.063.808-.174 1.138C29.894 26.749 29.513 26.943 29.107 26.943z"/><path fill="#8d6c9f" d="M32,3C15.984,3,3,15.984,3,32c0,16.016,12.984,29,29,29s29-12.984,29-29C61,15.984,48.016,3,32,3z M33.202,58.97c0,0.007-0.002,0.014-0.002,0.02c-0.264,0-0.535,0-0.804,0C32.263,58.992,32.133,59,32,59C17.088,59,5,46.912,5,32 c0-0.664,0.032-1.32,0.08-1.973c0.01-0.133,0.019-0.265,0.03-0.397c0.057-0.66,0.136-1.313,0.24-1.958 c0.007-0.042,0.015-0.084,0.022-0.125C7.496,14.755,18.606,5,32,5c12.129,0,22.389,7.997,25.796,19.006 c0.001-0.002,0.002-0.004,0.004-0.006c0.051,0.168,0.09,0.338,0.138,0.507c0.09,0.312,0.178,0.625,0.257,0.942 c0.028,0.115,0.053,0.231,0.08,0.346c0.103,0.439,0.196,0.881,0.277,1.328c0.002,0.013,0.006,0.025,0.008,0.037 c0,0-0.001,0-0.001,0C58.843,28.731,59,30.347,59,32c0,2.513-0.351,4.943-0.993,7.252c-0.003,0.009-0.004,0.019-0.007,0.028 c0,0-0.001-0.001-0.001-0.001C54.924,50.283,45.059,58.45,33.202,58.97z"/></g></svg>