<svg id="visual" viewBox="0 0 900 600" width="900" height="600" xmlns="http://www.w3.org/2000/svg" xmlns:xlink="http://www.w3.org/1999/xlink" version="1.1"><path d="M0 66L25 65.7C50 65.3 100 64.7 150 64.5C200 64.3 250 64.7 300 62.8C350 61 400 57 450 54.7C500 52.3 550 51.7 600 52.8C650 54 700 57 750 57.2C800 57.3 850 54.7 875 53.3L900 52L900 0L875 0C850 0 800 0 750 0C700 0 650 0 600 0C550 0 500 0 450 0C400 0 350 0 300 0C250 0 200 0 150 0C100 0 50 0 25 0L0 0Z" fill="#22502A" stroke-linecap="round" stroke-linejoin="miter"></path></svg>