<svg xmlns="http://www.w3.org/2000/svg" xmlns:xlink="http://www.w3.org/1999/xlink" id="visual" version="1.1" viewBox="0 532 900 69"><path d="M0 532L25 532.3C50 532.7 100 533.3 150 533.5C200 533.7 250 533.3 300 535.2C350 537 400 541 450 543.3C500 545.7 550 546.3 600 545.2C650 544 700 541 750 541C800 541 850 544 875 545.5L900 547L900 601L875 601C850 601 800 601 750 601C700 601 650 601 600 601C550 601 500 601 450 601C400 601 350 601 300 601C250 601 200 601 150 601C100 601 50 601 25 601L0 601Z" fill="#22502A" stroke-linecap="round" stroke-linejoin="miter"/></svg>