<?xml version="1.0" encoding="UTF-8" standalone="no"?><!DOCTYPE svg PUBLIC "-//W3C//DTD SVG 1.1//EN" "http://www.w3.org/Graphics/SVG/1.1/DTD/svg11.dtd"><svg width="100%" height="100%" viewBox="0 0 64 64" version="1.1" xmlns="http://www.w3.org/2000/svg" xmlns:xlink="http://www.w3.org/1999/xlink" xml:space="preserve" xmlns:serif="http://www.serif.com/" style="fill-rule:evenodd;clip-rule:evenodd;stroke-linejoin:round;stroke-miterlimit:2;"><path d="M36.21,5.147c-0,-0.001 -0.001,-0.001 -0.001,-0.002c-0.979,-1.347 -2.544,-2.145 -4.209,-2.145c-1.666,-0 -3.23,0.797 -4.209,2.145c-0.001,0.001 -0.001,0.001 -0.001,0.002c-3.55,4.908 -9.113,13.001 -12.997,20.535c-2.661,5.161 -4.516,10.081 -4.516,13.595c0,11.989 9.734,21.723 21.723,21.723c11.989,-0 21.723,-9.734 21.723,-21.723c-0,-3.514 -1.855,-8.434 -4.516,-13.595c-3.884,-7.534 -9.447,-15.627 -12.997,-20.535Z" style="fill:#85c8fd;"/><path d="M33,23.413c0,-0.309 -0.143,-0.601 -0.387,-0.79c-0.245,-0.19 -0.563,-0.255 -0.862,-0.178c-0.804,0.207 -1.572,0.502 -2.294,0.875c-2.17,1.109 -4.744,1.11 -6.918,-0.001c-1.507,-0.78 -3.222,-1.222 -5.039,-1.222c-0.067,0 -0.134,0.001 -0.2,0.002c-0.355,0.008 -0.679,0.202 -0.852,0.511c-3.498,6.24 -6.171,12.463 -6.171,16.667c0,11.989 9.734,21.723 21.723,21.723c0.552,-0 1,-0.448 1,-1l-0,-36.587Z" style="fill:#4fb1fe;"/><path d="M33,35.631c0,-0.417 -0.259,-0.791 -0.65,-0.937c-1.198,-0.448 -2.496,-0.694 -3.85,-0.694c-1.817,0 -3.532,0.442 -5.043,1.223c-2.17,1.109 -4.744,1.109 -6.918,-0.002c-1.362,-0.704 -2.895,-1.133 -4.52,-1.209c-0.464,-0.021 -0.881,0.279 -1.008,0.726c-0.474,1.668 -0.734,3.202 -0.734,4.539c0,11.989 9.734,21.723 21.723,21.723c0.552,-0 1,-0.448 1,-1l-0,-24.369Z" style="fill:#2e9cf4;"/><path d="M33,49.054c0,-0.265 -0.105,-0.519 -0.293,-0.707c-0.187,-0.187 -0.442,-0.293 -0.707,-0.293c-1.187,0 -2.374,-0.277 -3.461,-0.833c-1.507,-0.779 -3.222,-1.221 -5.039,-1.221c-1.817,0 -3.532,0.442 -5.043,1.223c-1.442,0.737 -3.066,0.984 -4.63,0.74c-0.374,-0.058 -0.749,0.1 -0.969,0.408c-0.22,0.308 -0.246,0.714 -0.069,1.048c3.644,6.885 10.884,11.581 19.211,11.581c0.552,-0 1,-0.448 1,-1l-0,-10.946Z" style="fill:#1b8ce5;"/><path d="M32,3l-0,58l-0,-0c11.655,-0 21.178,-9.198 21.7,-20.725c-0.059,-1.222 -0.237,-2.56 -0.514,-3.987l-0.051,-0.255c-0.069,-0.342 -0.143,-0.689 -0.223,-1.04c-0.014,-0.061 -0.028,-0.122 -0.042,-0.184c-0.148,-0.64 -0.313,-1.294 -0.494,-1.961c-0.79,-2.246 -1.886,-4.678 -3.169,-7.166c-3.884,-7.534 -9.447,-15.627 -12.997,-20.535c-0,-0.001 -0.001,-0.001 -0.001,-0.002c-0.979,-1.347 -2.544,-2.145 -4.209,-2.145l-0,0Z" style="fill:#13d626;"/><path d="M32,37.691l0.11,-0.099c2.098,0.232 4.101,-0.07 5.633,-1.081c0.983,-0.65 1.82,-1.48 2.283,-2.505c0.3,-0.666 0.424,-1.404 0.426,-2.159c-0,-1.269 1.03,-2.299 2.299,-2.299c1.269,-0 2.299,1.029 2.299,2.298c0.002,1.368 -0.303,2.668 -0.761,3.907c-0.673,1.824 -1.798,3.454 -3.271,4.863c-2.256,2.157 -5.342,3.569 -8.908,3.964c-0,0 -0.092,0.006 -0.11,0.006l-0,0l-0,-6.895Z" style="fill:#18aa67;"/><path d="M32,24.37l-0,6.844l-0,-0c0,-0 0.168,-0.014 0.168,-0.014c2.582,-0.439 4.754,-1.481 6.33,-3.127c1.193,-1.245 2.055,-2.649 2.466,-4.244c0.176,-0.684 0.323,-1.383 0.335,-2.114c0,-0.006 0,-0.011 0,-0.017c0,-1.269 -1.03,-2.299 -2.299,-2.299c-1.269,-0 -2.299,1.03 -2.299,2.299c-0.001,0.374 -0.051,0.745 -0.207,1.073c-0.248,0.524 -0.739,0.892 -1.262,1.203c-0.853,0.507 -1.94,0.445 -3.064,0.254l-0.168,0.142Z" style="fill:#18aa67;"/><path d="M32,49.723l0.076,-0.07c3.356,0.256 6.519,-0.487 8.916,-2.168c1.562,-1.094 2.84,-2.504 3.57,-4.169c0.482,-1.098 0.701,-2.302 0.703,-3.542c-0,-1.269 1.03,-2.299 2.299,-2.299c1.269,-0 2.299,1.03 2.299,2.299c0.002,1.852 -0.399,3.618 -1.036,5.288c-0.94,2.466 -2.505,4.676 -4.557,6.532c-3.123,2.825 -7.366,4.684 -12.194,5.053c0,-0 -0.053,0.003 -0.076,0.003l-0,-0.001l-0,-6.926Z" style="fill:#18aa67;"/><path d="M32,13.504l0.301,-0.221c0.129,0.041 0.31,0.147 0.421,0.216l0.612,0.114l0.363,-0.18c0.009,-0.043 0.004,-0.09 0.004,-0.137c0.001,-1.267 1.031,-2.296 2.299,-2.296c1.269,0 2.299,1.03 2.299,2.299c0,0.01 0,0.02 -0,0.029c-0.015,0.493 -0.127,0.959 -0.232,1.424c-0.25,1.11 -0.802,2.055 -1.558,2.975c-0.2,0.245 -0.435,0.423 -0.66,0.656c-0.926,0.953 -2.119,1.367 -3.541,1.805c-0.027,0.009 -0.285,0.049 -0.308,0.049l-0,-0l-0,-6.733Z" style="fill:#18aa67;"/></svg>